{
  "accessors": [
    {
      "bufferView": 2,
      "componentType": 5126,
      "count": 2604,
      "max": [
        5.1576881408691406,
        0.69311982393264771,
        1.4107437133789062
      ],
      "min": [
        -3.15928053855896,
        -0.69311982393264771,
        -2.3124501705169678
      ],
      "type": "VEC3"
    },
    {
      "bufferView": 2,
      "byteOffset": 31248,
      "componentType": 5126,
      "count": 2604,
      "max": [
        0.998177170753479,
        1,
        0.99999910593032837
      ],
      "min": [
        -0.98702478408813477,
        -1,
        -0.99896121025085449
      ],
      "type": "VEC3"
    },
    {
      "bufferView": 1,
      "componentType": 5126,
      "count": 2604,
      "max": [
        0.9227789044380188,
        0.72073334455490112
      ],
      "min": [
        0.23354719579219818,
        0.23706842958927155
      ],
      "type": "VEC2"
    },
    {
      "bufferView": 0,
      "componentType": 5125,
      "count": 9966,
      "max": [
        2603
      ],
      "min": [
        0
      ],
      "type": "SCALAR"
    },
    {
      "bufferView": 2,
      "byteOffset": 62496,
      "componentType": 5126,
      "count": 6744,
      "max": [
        3.2572872638702393,
        0.76857250928878784,
        0.9535980224609375
      ],
      "min": [
        -0.99875336885452271,
        -0.76486748456954956,
        -0.34644511342048645
      ],
      "type": "VEC3"
    },
    {
      "bufferView": 2,
      "byteOffset": 143424,
      "componentType": 5126,
      "count": 6744,
      "max": [
        0.99886119365692139,
        0.99998140335083008,
        0.99785709381103516
      ],
      "min": [
        -0.99886125326156616,
        -0.99998718500137329,
        -0.99785709381103516
      ],
      "type": "VEC3"
    },
    {
      "bufferView": 1,
      "byteOffset": 20832,
      "componentType": 5126,
      "count": 6744,
      "max": [
        0.76327031850814819,
        0.6626695990562439
      ],
      "min": [
        0.39073449373245239,
        0.52759939432144165
      ],
      "type": "VEC2"
    },
    {
      "bufferView": 0,
      "byteOffset": 39864,
      "componentType": 5125,
      "count": 37248,
      "max": [
        6743
      ],
      "min": [
        0
      ],
      "type": "SCALAR"
    }
  ],
  "asset": {
    "extras": {
      "author": "Šimon Ustal (https://sketchfab.com/simonustal)",
      "license": "CC-BY-4.0 (http://creativecommons.org/licenses/by/4.0/)",
      "source": "https://sketchfab.com/3d-models/titmouse-animals-6ce2b75341b94f68b9983182c63651c1",
      "title": "Titmouse - Animals"
    },
    "generator": "Sketchfab-9.90.0",
    "version": "2.0"
  },
  "bufferViews": [
    {
      "buffer": 0,
      "byteLength": 188856,
      "byteOffset": 0,
      "name": "floatBufferViews",
      "target": 34963
    },
    {
      "buffer": 0,
      "byteLength": 74784,
      "byteOffset": 188856,
      "byteStride": 8,
      "name": "floatBufferViews",
      "target": 34962
    },
    {
      "buffer": 0,
      "byteLength": 224352,
      "byteOffset": 263640,
      "byteStride": 12,
      "name": "floatBufferViews",
      "target": 34962
    }
  ],
  "buffers": [
    {
      "byteLength": 487992,
      "uri": "scene.bin"
    }
  ],
  "images": [
    {
      "uri": "textures/Material.001_baseColor.jpeg"
    },
    {
      "uri": "textures/Material.001_metallicRoughness.png"
    }
  ],
  "materials": [
    {
      "doubleSided": true,
      "emissiveFactor": [
        0,
        0,
        0
      ],
      "name": "Material.001",
      "occlusionTexture": {
        "index": 1,
        "strength": 1,
        "texCoord": 0
      },
      "pbrMetallicRoughness": {
        "baseColorFactor": [
          1,
          1,
          1,
          1
        ],
        "baseColorTexture": {
          "index": 0,
          "texCoord": 0
        },
        "metallicFactor": 0,
        "metallicRoughnessTexture": {
          "index": 1,
          "texCoord": 0
        },
        "roughnessFactor": 0.82111456179999998
      }
    },
    {
      "doubleSided": true,
      "emissiveFactor": [
        0,
        0,
        0
      ],
      "name": "Material.002",
      "occlusionTexture": {
        "index": 1,
        "strength": 1,
        "texCoord": 0
      },
      "pbrMetallicRoughness": {
        "baseColorFactor": [
          1,
          1,
          1,
          1
        ],
        "baseColorTexture": {
          "index": 0,
          "texCoord": 0
        },
        "metallicFactor": 0,
        "metallicRoughnessTexture": {
          "index": 1,
          "texCoord": 0
        },
        "roughnessFactor": 0.87060631486784745
      }
    }
  ],
  "meshes": [
    {
      "name": "Cube_Material.001_0",
      "primitives": [
        {
          "attributes": {
            "NORMAL": 1,
            "POSITION": 0,
            "TEXCOORD_0": 2
          },
          "indices": 3,
          "material": 0,
          "mode": 4
        }
      ]
    },
    {
      "name": "Cube_Material.002_0",
      "primitives": [
        {
          "attributes": {
            "NORMAL": 5,
            "POSITION": 4,
            "TEXCOORD_0": 6
          },
          "indices": 7,
          "material": 1,
          "mode": 4
        }
      ]
    }
  ],
  "nodes": [
    {
      "children": [
        1
      ],
      "name": "RootNode (gltf orientation matrix)",
      "rotation": [
        -0.70710678118654746,
        -0,
        -0,
        0.70710678118654757
      ]
    },
    {
      "children": [
        2
      ],
      "name": "RootNode (model correction matrix)"
    },
    {
      "children": [
        3
      ],
      "matrix": [
        1,
        0,
        0,
        0,
        0,
        0,
        1,
        0,
        0,
        -1,
        0,
        0,
        0,
        0,
        0,
        1
      ],
      "name": "5e517e03d0454d5b93f8c35524b272c3.fbx"
    },
    {
      "children": [
        4,
        7,
        9,
        12,
        14,
        17,
        19
      ],
      "name": "RootNode"
    },
    {
      "children": [
        5
      ],
      "matrix": [
        -29.08647719990347,
        -5.5189064575668629,
        -95.517119101714371,
        0,
        56.639309131094492,
        79.467234285632031,
        -21.839123978419661,
        0,
        77.110087759933748,
        -60.452463565620441,
        -19.988346967737169,
        0,
        407.62454223632812,
        590.38623046875,
        -100.54539489746094,
        1
      ],
      "name": "Light"
    },
    {
      "children": [
        6
      ],
      "matrix": [
        1,
        0,
        0,
        0,
        0,
        2.2204460492503131e-16,
        1,
        0,
        0,
        -1,
        2.2204460492503131e-16,
        0,
        0,
        0,
        0,
        1
      ],
      "name": ""
    },
    {
      "name": ""
    },
    {
      "children": [
        8
      ],
      "matrix": [
        -65.155832803290963,
        -44.527135765708579,
        -61.417030473735487,
        0,
        -32.40134137821245,
        89.539574512336159,
        -30.542088974418615,
        0,
        68.592054721299746,
        -1.0718647115348782e-05,
        -72.767633623962695,
        0,
        735.88916015625,
        495.8309326171875,
        692.5791015625,
        1
      ],
      "name": "Camera"
    },
    {
      "name": ""
    },
    {
      "children": [
        10
      ],
      "matrix": [
        -29.086464451752825,
        -5.5189004465076072,
        -95.517115343578382,
        0,
        56.639321162117227,
        79.467228019017938,
        -21.839115578886208,
        0,
        77.11007701143383,
        -60.452467701511644,
        -19.988337755040789,
        0,
        407.62454223632812,
        590.38623046875,
        -100.54539489746094,
        1
      ],
      "name": "Light.001"
    },
    {
      "children": [
        11
      ],
      "matrix": [
        1,
        0,
        0,
        0,
        0,
        2.2204460492503131e-16,
        1,
        0,
        0,
        -1,
        2.2204460492503131e-16,
        0,
        0,
        0,
        0,
        1
      ],
      "name": ""
    },
    {
      "name": ""
    },
    {
      "children": [
        13
      ],
      "matrix": [
        -65.155830486319218,
        -44.527128484967648,
        -61.417025787987917,
        0,
        -32.401335185591705,
        89.539562780953119,
        -30.542079976777014,
        0,
        68.592052790029001,
        -9.4700783373159711e-06,
        -72.767635444412633,
        0,
        735.88916015625,
        495.8309326171875,
        692.5791015625,
        1
      ],
      "name": "Camera.001"
    },
    {
      "name": ""
    },
    {
      "children": [
        15
      ],
      "matrix": [
        -29.086468151157451,
        -5.5188930659677942,
        -95.517122630955953,
        0,
        56.639306257700731,
        79.467222320918751,
        -21.83910509811415,
        0,
        77.110081052616508,
        -60.452459964352208,
        -19.988345565315242,
        0,
        407.62454223632812,
        590.38623046875,
        -100.54539489746094,
        1
      ],
      "name": "Light.002"
    },
    {
      "children": [
        16
      ],
      "matrix": [
        1,
        0,
        0,
        0,
        0,
        2.2204460492503131e-16,
        1,
        0,
        0,
        -1,
        2.2204460492503131e-16,
        0,
        0,
        0,
        0,
        1
      ],
      "name": ""
    },
    {
      "name": ""
    },
    {
      "children": [
        18
      ],
      "matrix": [
        -65.15583579436607,
        -44.527120717787071,
        -61.417025787987917,
        0,
        -32.401326555846268,
        89.539566643493117,
        -30.542077808132479,
        0,
        68.592046591233995,
        -1.4978400038483453e-05,
        -72.767630802907007,
        0,
        735.88916015625,
        495.8309326171875,
        692.5791015625,
        1
      ],
      "name": "Camera.002"
    },
    {
      "name": ""
    },
    {
      "children": [
        20,
        21
      ],
      "matrix": [
        30.61586911364174,
        0.18058178160319105,
        1.9401076113964427e-07,
        0,
        2.7206988754730726e-07,
        -1.8018224277420817e-06,
        -41.25688552856441,
        0,
        -0.18058174785338862,
        30.615863391695346,
        -1.3382852189122726e-06,
        0,
        -7.2820930480957031,
        64.281288146972656,
        0.35422578454017639,
        1
      ],
      "name": "Cube"
    },
    {
      "mesh": 0,
      "name": "Cube_Material.001_0"
    },
    {
      "mesh": 1,
      "name": "Cube_Material.002_0"
    }
  ],
  "samplers": [
    {
      "magFilter": 9729,
      "minFilter": 9987,
      "wrapS": 10497,
      "wrapT": 10497
    }
  ],
  "scene": 0,
  "scenes": [
    {
      "name": "OSG_Scene",
      "nodes": [
        0
      ]
    }
  ],
  "textures": [
    {
      "sampler": 0,
      "source": 0
    },
    {
      "sampler": 0,
      "source": 1
    }
  ]
}

